# xmcd CD database file
#
# Track frame offsets:
#	150
#	47400
#	60900
#	91962
#	107250
#	139017
#	166800
#	197550
#	223050
#	243750
#
# Disc length: 3736 seconds
#
# Revision: 1
# Processed by: cddbd v1.5.1PL2 Copyright (c) Steve Scherf et al.
# Submitted via: CDex 1.51
#
DISCID=750e960a
DTITLE=Nancie Banks Orchestra - Bert's Blues
DYEAR=1994
DGENRE=Jazz
TTITLE0=Those who chant
TTITLE1=Chasing the Hound 
TTITLE2=Long as You're Living 
TTITLE3=Night and Day 
TTITLE4=Bert's Blues 
TTITLE5=You Go to My Head 
TTITLE6=Moontrane 
TTITLE7=Fas' Livin' Blues 
TTITLE8=Quasimodo/Quasimoto 
TTITLE9=Shamba
EXTD=YEAR: 1994
EXTT0=
EXTT1=
EXTT2=
EXTT3=
EXTT4=
EXTT5=
EXTT6=
EXTT7=
EXTT8=
EXTT9=
PLAYORDER=
